<svg viewBox="0 0 41 11" fill="none" xmlns="http://www.w3.org/2000/svg">
<path d="M5.75001 10.4166C4.39793 10.4166 3.24046 9.93522 2.27761 8.97238C1.31477 8.00953 0.833344 6.85206 0.833344 5.49998C0.833344 4.1479 1.31477 2.99043 2.27761 2.02758C3.24046 1.06474 4.39793 0.583313 5.75001 0.583313C7.10209 0.583313 8.25956 1.06474 9.22241 2.02758C10.1853 2.99043 10.6667 4.1479 10.6667 5.49998C10.6667 6.85206 10.1853 8.00953 9.22241 8.97238C8.25956 9.93522 7.10209 10.4166 5.75001 10.4166ZM20.5 10.4166C19.1479 10.4166 17.9905 9.93522 17.0276 8.97238C16.0648 8.00953 15.5833 6.85206 15.5833 5.49998C15.5833 4.1479 16.0648 2.99043 17.0276 2.02758C17.9905 1.06474 19.1479 0.583313 20.5 0.583313C21.8521 0.583313 23.0096 1.06474 23.9724 2.02758C24.9353 2.99043 25.4167 4.1479 25.4167 5.49998C25.4167 6.85206 24.9353 8.00953 23.9724 8.97238C23.0096 9.93522 21.8521 10.4166 20.5 10.4166ZM35.25 10.4166C33.8979 10.4166 32.7405 9.93522 31.7776 8.97238C30.8148 8.00953 30.3333 6.85206 30.3333 5.49998C30.3333 4.1479 30.8148 2.99043 31.7776 2.02758C32.7405 1.06474 33.8979 0.583313 35.25 0.583313C36.6021 0.583313 37.7596 1.06474 38.7224 2.02758C39.6853 2.99043 40.1667 4.1479 40.1667 5.49998C40.1667 6.85206 39.6853 8.00953 38.7224 8.97238C37.7596 9.93522 36.6021 10.4166 35.25 10.4166Z" fill="#6155F5"/>
</svg>
