<svg width="120" height="65" viewBox="0 0 120 65" fill="none" xmlns="http://www.w3.org/2000/svg">
<path d="M116.302 47.9438C111.069 48.0427 105.786 52.9689 101.069 54.8801C94.383 57.5821 86.5282 56.9725 85.3185 48.6193C85.1169 47.2601 85.1088 44.2533 85.7782 42.8446C87.8588 38.4538 90.3588 40.5874 93.8911 39.6895C96.6411 38.9893 99.5282 38.3632 100.06 34.8127C100.956 28.9144 92.0443 27.1021 87.9233 27.1762C81.4959 27.2916 75.8346 30.8091 70.9395 34.7715C67.754 37.3417 64.9153 40.2909 61.9072 43.067C58.9959 45.7526 52.2378 53.3149 47.4314 47.8862C45.2943 45.4725 45.7943 40.9499 46.3749 38.1408C47.3588 33.3793 50.2056 28.6508 53.6814 25.3722C59.3911 19.9846 65.0927 20.4212 71.875 18.51C75.2621 17.5545 77.5362 15.2479 75.5766 11.3431C72.7459 5.70846 62.3749 2.62751 56.883 1.50717C49.4717 -0.00859485 41.6814 0.510389 34.504 2.91584C15.3507 9.34958 6.27814 28.3543 2.05233 47.1859C1.0604 51.6179 -2.61702 59.6251 3.23782 61.2726C7.85879 62.5742 12.254 61.4456 13.7459 56.9807C13.7862 56.9148 13.8104 56.8407 13.8265 56.7665C13.8426 56.7089 13.8507 56.6512 13.8507 56.6018C15.504 44.6816 18.5362 32.3414 25.9959 22.7361C32.8749 13.8804 44.4878 9.16011 54.9314 11.4008C50.9314 13.2955 47.4314 16.0964 44.504 19.4986C37.0846 28.1318 31.0201 43.5366 37.5927 54.2952C42.3507 62.0717 51.5524 61.841 58.8749 58.2411C64.0282 55.7039 69.1814 49.0971 74.6814 44.0968C74.5604 44.9864 74.4878 45.8926 74.4637 46.8235C74.1572 62.8296 87.8669 67.3933 100.762 63.1591C105.827 61.495 115.294 58.1505 118.714 53.4714C121.052 50.2751 120.173 47.8697 116.31 47.9438H116.302Z" fill="black"/>
</svg>
